<svg xmlns="http://www.w3.org/2000/svg" width="500" height="500" viewBox="0 0 500 500">
<g>
<path d="M 238.41 478.14 C237.73,479.25 234.00,479.26 234.00,478.16 C234.00,476.32 228.48,475.00 220.70,474.98 C216.19,474.98 209.80,474.27 206.50,473.41 C203.20,472.56 199.15,471.63 197.50,471.34 C195.85,471.06 192.70,470.03 190.50,469.05 C188.30,468.07 184.25,466.94 181.50,466.54 C178.75,466.13 176.21,465.34 175.86,464.78 C175.51,464.21 173.94,463.75 172.36,463.75 C170.68,463.76 168.24,462.65 166.45,461.09 C164.24,459.15 162.40,458.45 159.75,458.54 C157.74,458.60 156.30,458.32 156.56,457.90 C156.82,457.48 156.20,456.88 155.19,456.56 C154.18,456.24 152.36,455.05 151.14,453.92 C149.92,452.78 147.93,451.74 146.71,451.60 C143.58,451.24 136.86,447.61 134.51,445.01 C132.25,442.51 128.33,440.10 129.44,441.90 C130.35,443.38 129.45,443.29 127.82,441.75 C127.09,441.06 124.77,439.70 122.65,438.72 C120.53,437.74 118.57,436.08 118.30,435.02 C118.01,433.94 116.57,432.84 114.94,432.49 C113.37,432.14 111.81,430.99 111.48,429.93 C111.14,428.87 110.19,428.00 109.37,428.00 C108.55,428.00 108.16,427.56 108.49,427.01 C108.83,426.47 108.50,426.25 107.76,426.54 C106.23,427.12 99.66,421.68 100.67,420.66 C101.03,420.30 100.88,420.00 100.32,420.00 C99.76,420.00 96.44,417.19 92.96,413.75 C89.47,410.31 86.96,408.17 87.38,409.00 C87.81,409.83 87.22,409.44 86.08,408.14 C84.93,406.84 84.00,405.08 84.00,404.22 C84.00,403.37 83.73,402.94 83.40,403.27 C82.64,404.03 75.40,396.85 75.77,395.70 C75.93,395.23 75.59,395.14 75.02,395.49 C74.46,395.83 73.60,395.07 73.11,393.78 C72.62,392.49 70.64,389.37 68.72,386.85 C66.79,384.33 64.92,381.31 64.54,380.14 C64.17,378.96 62.97,377.52 61.88,376.94 C60.80,376.36 59.46,374.89 58.91,373.69 C56.85,369.17 55.30,367.04 54.58,367.76 C54.17,368.17 53.96,368.05 54.11,367.50 C54.69,365.39 52.76,359.94 50.99,358.71 C49.97,357.99 48.87,356.31 48.55,354.96 C48.04,352.85 48.84,351.79 54.17,347.56 C57.60,344.85 62.11,341.80 64.20,340.79 C66.29,339.78 68.00,338.53 68.00,338.02 C68.00,336.99 81.41,326.01 82.70,325.98 C83.14,325.98 85.97,323.69 89.00,320.90 C92.03,318.12 95.68,315.22 97.13,314.46 C98.57,313.70 100.02,312.38 100.35,311.54 C100.67,310.69 101.40,310.00 101.96,310.00 C102.52,310.00 105.72,307.86 109.07,305.25 C116.09,299.78 120.18,297.01 121.25,297.01 C121.66,297.00 122.00,297.84 122.00,298.87 C122.00,301.14 124.76,309.20 125.80,309.96 C126.21,310.26 127.08,311.74 127.75,313.25 C128.41,314.76 129.53,316.02 130.23,316.04 C130.93,316.06 132.40,317.84 133.50,320.01 C134.60,322.18 137.75,327.21 140.50,331.19 C149.27,343.91 179.26,372.41 182.67,371.28 C183.28,371.07 184.65,372.01 185.71,373.36 C186.77,374.71 188.95,375.96 190.57,376.15 C192.18,376.34 193.73,376.77 194.00,377.10 C194.84,378.14 204.15,382.00 205.88,382.03 C206.77,382.05 208.37,382.72 209.44,383.53 C210.51,384.34 212.32,385.00 213.47,385.00 C214.62,385.00 216.55,385.70 217.76,386.54 C219.34,387.65 223.46,388.24 232.23,388.60 C238.98,388.88 245.85,389.27 247.49,389.45 C253.10,390.09 275.88,388.11 281.20,386.52 C284.11,385.65 288.75,384.69 291.50,384.38 C294.25,384.08 297.92,382.95 299.66,381.89 C301.40,380.82 303.20,380.07 303.66,380.22 C305.17,380.72 317.05,374.90 316.47,373.95 C316.15,373.43 316.66,373.32 317.61,373.68 C318.87,374.16 319.11,373.99 318.51,373.02 C317.96,372.12 318.08,371.93 318.88,372.43 C319.54,372.83 321.89,372.22 324.11,371.06 L 328.15 368.95 L 331.15 371.48 C332.80,372.86 334.50,374.00 334.93,374.00 C335.36,374.00 338.51,376.71 341.94,380.02 C345.37,383.34 349.60,386.65 351.34,387.39 C354.78,388.85 366.33,398.26 374.28,406.08 C377.02,408.79 379.93,411.00 380.73,411.00 C382.69,411.00 389.95,416.21 389.98,417.64 C389.99,418.27 391.14,419.07 392.54,419.42 C393.94,419.77 395.34,420.71 395.64,421.50 C396.33,423.30 392.31,430.00 390.54,430.00 C389.82,430.00 388.04,431.58 386.57,433.50 C385.10,435.43 382.57,437.69 380.95,438.53 C379.33,439.37 378.00,440.55 378.00,441.17 C378.00,442.69 375.50,444.56 369.00,447.90 C365.98,449.45 361.48,451.86 359.00,453.26 C356.52,454.66 352.96,456.12 351.09,456.52 C349.21,456.91 344.78,458.53 341.24,460.12 C337.71,461.70 334.00,463.00 333.00,463.00 C332.00,463.00 328.94,464.16 326.21,465.58 C323.45,467.01 318.36,468.52 314.80,468.96 C308.52,469.74 302.26,472.16 300.75,474.39 C300.21,475.19 299.77,475.15 299.19,474.25 C298.56,473.28 297.09,473.24 292.66,474.06 C289.51,474.64 286.03,474.83 284.92,474.47 C283.81,474.12 282.25,474.38 281.44,475.05 C280.45,475.87 273.39,476.43 259.46,476.78 C248.17,477.06 238.70,477.67 238.41,478.14 ZM 94.57 416.23 C95.57,417.18 96.11,418.23 95.77,418.56 C95.44,418.90 94.62,418.12 93.96,416.84 C92.82,414.60 92.85,414.58 94.57,416.23 Z" fill="rgb(52,167,83)"/>
<path d="M 414.90 410.58 C411.38,414.47 406.92,419.02 405.00,420.70 L 401.50 423.75 L 396.50 419.84 C386.58,412.10 376.59,404.41 370.07,399.50 C361.64,393.16 353.68,386.75 352.89,385.66 C352.55,385.20 351.36,384.30 350.25,383.66 C348.19,382.48 335.82,373.10 330.64,368.79 L 327.78 366.41 L 333.19 362.24 C350.43,348.94 363.91,329.73 370.37,309.22 C373.06,300.71 373.22,299.03 371.50,297.77 C370.95,297.36 343.39,297.02 310.25,297.02 L 250.00 297.00 L 250.00 208.99 L 358.23 209.25 L 466.46 209.50 L 467.88 218.00 C470.15,231.67 470.01,280.46 467.66,294.50 C459.63,342.50 442.62,379.91 414.90,410.58 Z" fill="rgb(66,133,243)"/>
<path d="M 367.65 448.60 C368.12,448.35 368.57,448.11 369.00,447.90 C375.50,444.56 378.00,442.69 378.00,441.17 C378.00,440.55 379.33,439.37 380.95,438.53 C382.57,437.69 385.10,435.43 386.57,433.50 C388.04,431.58 389.82,430.00 390.54,430.00 C392.31,430.00 396.33,423.30 395.64,421.50 C395.34,420.71 393.94,419.77 392.54,419.42 C391.14,419.07 389.99,418.27 389.98,417.64 C389.95,416.21 382.69,411.00 380.73,411.00 C379.93,411.00 377.02,408.79 374.28,406.08 C366.33,398.26 354.78,388.85 351.34,387.39 C349.60,386.65 345.37,383.34 341.94,380.02 C338.51,376.71 335.36,374.00 334.93,374.00 C334.50,374.00 332.80,372.86 331.15,371.48 L 328.15 368.95 L 324.11 371.06 C321.89,372.22 319.54,372.83 318.88,372.43 C318.08,371.93 317.96,372.12 318.51,373.02 C319.11,373.99 318.87,374.16 317.61,373.68 C316.66,373.32 316.15,373.43 316.47,373.95 C317.05,374.90 305.17,380.72 303.66,380.22 C303.20,380.07 301.40,380.82 299.66,381.89 C297.92,382.95 294.25,384.08 291.50,384.38 C288.75,384.69 284.11,385.65 281.20,386.52 C275.88,388.11 253.10,390.09 247.49,389.45 C245.85,389.27 238.98,388.88 232.23,388.60 C223.46,388.24 219.34,387.65 217.76,386.54 C216.55,385.70 214.62,385.00 213.47,385.00 C212.32,385.00 210.51,384.34 209.44,383.53 C208.37,382.72 206.77,382.05 205.88,382.03 C204.15,382.00 194.84,378.14 194.00,377.10 C193.73,376.77 192.18,376.34 190.57,376.15 C188.95,375.96 186.77,374.71 185.71,373.36 C184.65,372.01 183.28,371.07 182.67,371.28 C180.56,371.98 168.32,361.38 157.20,350.17 C162.79,355.71 168.27,360.59 171.00,362.14 C173.48,363.55 178.62,366.62 182.44,368.98 C195.91,377.28 213.96,384.01 229.48,386.53 C239.25,388.11 263.70,388.41 271.00,387.03 C273.48,386.56 278.25,385.69 281.62,385.09 C297.74,382.21 321.27,371.75 333.46,362.02 C340.10,356.73 346.01,350.91 351.15,344.62 C345.84,351.19 339.79,357.15 333.19,362.24 L 327.78 366.41 L 330.64 368.79 C335.82,373.10 348.19,382.48 350.25,383.66 C351.36,384.30 352.55,385.20 352.89,385.66 C353.68,386.75 361.64,393.16 370.07,399.50 C376.59,404.41 386.58,412.10 396.50,419.84 L 401.50 423.75 L 404.77 420.90 C404.59,421.07 404.41,421.25 404.23,421.43 C392.84,432.45 376.45,444.72 368.45,448.22 C368.24,448.31 367.96,448.44 367.65,448.60 ZM 238.41 478.14 C238.70,477.67 248.17,477.06 259.46,476.78 C273.39,476.43 280.45,475.87 281.44,475.05 C282.25,474.38 283.81,474.12 284.92,474.47 C286.03,474.83 289.51,474.64 292.66,474.06 C297.09,473.24 298.56,473.28 299.19,474.25 C299.33,474.47 299.46,474.63 299.59,474.75 C296.02,475.53 292.32,476.27 288.50,477.00 C285.75,477.52 278.10,478.40 271.50,478.96 C220.07,483.33 166.93,469.52 123.46,440.49 C113.65,433.94 104.32,426.60 95.62,418.64 C95.68,418.63 95.73,418.60 95.77,418.56 C96.11,418.23 95.57,417.18 94.57,416.23 C92.85,414.58 92.82,414.60 93.96,416.84 C94.07,417.04 94.18,417.23 94.29,417.41 C76.31,400.69 61.08,381.29 49.96,360.66 L 45.89 353.13 L 48.20 351.90 C48.93,351.51 50.41,350.50 52.10,349.25 C48.63,352.13 48.11,353.16 48.55,354.96 C48.87,356.31 49.97,357.99 50.99,358.71 C52.76,359.94 54.69,365.39 54.11,367.50 C53.96,368.05 54.17,368.17 54.58,367.76 C55.30,367.04 56.85,369.17 58.91,373.69 C59.46,374.89 60.80,376.36 61.88,376.94 C62.97,377.52 64.17,378.96 64.54,380.14 C64.92,381.31 66.79,384.33 68.72,386.85 C70.64,389.37 72.62,392.49 73.11,393.78 C73.60,395.07 74.46,395.83 75.02,395.49 C75.59,395.14 75.93,395.23 75.77,395.70 C75.40,396.85 82.64,404.03 83.40,403.27 C83.73,402.94 84.00,403.37 84.00,404.22 C84.00,405.08 84.93,406.84 86.08,408.14 C87.22,409.44 87.81,409.83 87.38,409.00 C86.96,408.17 89.47,410.31 92.96,413.75 C96.44,417.19 99.76,420.00 100.32,420.00 C100.88,420.00 101.03,420.30 100.67,420.66 C99.66,421.68 106.23,427.12 107.76,426.54 C108.50,426.25 108.83,426.47 108.49,427.01 C108.16,427.56 108.55,428.00 109.37,428.00 C110.19,428.00 111.14,428.87 111.48,429.93 C111.81,430.99 113.37,432.14 114.94,432.49 C116.57,432.84 118.01,433.94 118.30,435.02 C118.57,436.08 120.53,437.74 122.65,438.72 C124.77,439.70 127.09,441.06 127.82,441.75 C129.45,443.29 130.35,443.38 129.44,441.90 C128.33,440.10 132.25,442.51 134.51,445.01 C136.86,447.61 143.58,451.24 146.71,451.60 C147.93,451.74 149.92,452.78 151.14,453.92 C152.36,455.05 154.18,456.24 155.19,456.56 C156.20,456.88 156.82,457.48 156.56,457.90 C156.30,458.32 157.74,458.60 159.75,458.54 C162.40,458.45 164.24,459.15 166.45,461.09 C168.24,462.65 170.68,463.76 172.36,463.75 C173.94,463.75 175.51,464.21 175.86,464.78 C176.21,465.34 178.75,466.13 181.50,466.54 C184.25,466.94 188.30,468.07 190.50,469.05 C192.70,470.03 195.85,471.06 197.50,471.34 C199.15,471.63 203.20,472.56 206.50,473.41 C209.80,474.27 216.19,474.98 220.70,474.98 C228.48,475.00 234.00,476.32 234.00,478.16 C234.00,479.26 237.73,479.25 238.41,478.14 ZM 300.66 474.52 C300.69,474.48 300.72,474.43 300.75,474.39 C302.26,472.16 308.52,469.74 314.80,468.96 C318.36,468.52 323.45,467.01 326.21,465.58 C328.94,464.16 332.00,463.00 333.00,463.00 C334.00,463.00 337.71,461.70 341.24,460.12 C344.78,458.53 349.21,456.91 351.09,456.52 C352.96,456.12 356.52,454.66 359.00,453.26 C360.24,452.56 361.98,451.61 363.80,450.63 C361.99,451.63 359.93,452.81 358.00,453.95 C343.60,462.48 325.04,469.15 300.66,474.52 ZM 132.42 318.17 C131.57,316.92 130.71,316.05 130.23,316.04 C129.53,316.02 128.41,314.76 127.75,313.25 C127.08,311.74 126.21,310.26 125.80,309.96 C124.76,309.20 122.00,301.14 122.00,298.87 C122.00,298.15 121.84,297.53 121.60,297.21 C121.66,297.22 121.72,297.23 121.78,297.24 C122.49,297.38 125.56,303.12 128.61,310.00 C129.91,312.92 131.24,315.77 132.42,318.17 ZM 143.77 335.50 C142.50,333.93 141.39,332.48 140.50,331.19 C139.38,329.57 138.19,327.77 137.10,326.06 C138.32,327.70 140.03,330.17 141.56,332.49 C142.13,333.36 142.88,334.38 143.77,335.50 ZM 447.06 362.49 C456.62,342.42 463.40,319.96 467.66,294.51 C463.38,320.08 456.65,342.45 447.06,362.49 ZM 57.02 345.40 C59.80,343.27 63.04,341.18 64.65,340.50 C64.90,340.40 65.15,340.29 65.38,340.17 C65.01,340.38 64.61,340.59 64.20,340.79 C62.66,341.54 59.79,343.39 57.02,345.40 ZM 75.08 331.45 C78.51,328.63 82.04,326.00 82.70,325.98 C82.06,326.00 78.52,328.64 75.08,331.45 ZM 117.27 299.16 C115.25,300.53 112.51,302.57 109.07,305.25 C112.76,302.38 115.37,300.42 117.27,299.16 Z" fill="rgb(62,163,94)"/>
<path d="M 132.42 318.17 C131.24,315.77 129.91,312.92 128.61,310.00 C125.56,303.12 122.49,297.38 121.78,297.24 C121.72,297.23 121.66,297.22 121.60,297.21 C121.49,297.08 121.37,297.00 121.25,297.01 C120.70,297.01 119.37,297.73 117.27,299.16 C115.37,300.42 112.76,302.38 109.07,305.25 C105.72,307.86 102.52,310.00 101.96,310.00 C101.40,310.00 100.67,310.69 100.35,311.54 C100.02,312.38 98.57,313.70 97.13,314.46 C95.68,315.22 92.03,318.12 89.00,320.90 C85.97,323.69 83.14,325.98 82.70,325.98 L 82.70 325.98 C82.04,326.00 78.51,328.63 75.08,331.45 L 75.08 331.45 C71.49,334.38 68.00,337.49 68.00,338.02 C68.00,338.43 66.90,339.32 65.38,340.17 C65.15,340.29 64.90,340.40 64.65,340.50 C63.04,341.18 59.80,343.27 57.02,345.40 C56.04,346.12 55.07,346.85 54.17,347.56 C53.39,348.19 52.70,348.75 52.10,349.25 C50.41,350.50 48.93,351.51 48.20,351.90 L 46.36 352.88 C45.79,350.90 46.12,350.00 47.29,350.00 C48.56,350.00 51.53,347.73 79.68,325.30 C87.48,319.09 94.18,314.00 94.57,314.00 C94.96,314.00 98.03,311.61 101.39,308.69 C104.75,305.77 109.30,302.08 111.50,300.50 C113.70,298.91 116.67,296.56 118.10,295.27 C121.17,292.49 121.51,292.79 124.99,301.50 C128.37,309.97 132.35,318.14 136.35,324.86 C135.09,322.86 134.05,321.08 133.50,320.01 C133.16,319.35 132.79,318.72 132.42,318.17 ZM 467.66 294.51 C463.62,318.62 457.41,339.89 448.67,359.04 C457.38,339.86 463.64,318.51 467.66,294.51 ZM 48.73 358.38 L 49.96 360.66 C51.75,363.97 53.64,367.25 55.63,370.50 C53.69,367.34 51.83,364.14 50.07,360.91 C49.57,360.01 49.13,359.16 48.73,358.38 ZM 95.61 418.64 C95.62,418.64 95.62,418.64 95.62,418.64 C103.41,425.77 111.69,432.39 120.38,438.40 C111.68,432.38 103.39,425.76 95.61,418.64 ZM 94.30 417.43 C88.82,412.33 83.61,406.99 78.67,401.44 C83.60,406.98 88.81,412.32 94.29,417.41 Z" fill="rgb(78,164,61)"/>
<path d="M 125.31 197.49 C123.54,201.88 121.73,205.56 121.29,205.66 C120.86,205.77 113.53,200.36 105.00,193.64 C72.15,167.74 49.07,149.96 47.57,149.39 C46.70,149.06 46.01,148.27 46.01,147.64 C46.03,146.11 60.59,122.18 65.00,116.44 C76.18,101.90 78.79,98.78 85.79,91.60 C96.00,81.13 106.91,71.57 115.50,65.56 C119.35,62.87 125.65,58.35 129.50,55.52 C133.35,52.69 138.30,49.66 140.50,48.78 C142.70,47.89 148.77,45.17 154.00,42.71 C163.77,38.12 177.07,33.08 185.00,30.97 C187.48,30.31 190.40,29.42 191.50,28.99 C193.93,28.03 207.05,25.52 220.24,23.50 C231.75,21.73 268.36,21.45 279.31,23.05 C305.28,26.84 330.82,34.33 349.00,43.48 C372.03,55.07 401.00,75.77 401.00,80.64 C401.00,81.76 388.41,95.10 369.57,113.93 C340.29,143.20 338.02,145.24 336.22,143.92 C335.16,143.14 330.96,140.02 326.90,136.98 C316.25,129.03 310.33,125.64 299.99,121.55 C271.92,110.45 239.98,109.34 210.43,118.44 C201.21,121.28 190.16,125.71 188.00,127.42 C187.18,128.08 185.24,129.15 183.70,129.81 C178.51,132.02 161.56,145.70 152.94,154.63 C144.77,163.09 141.32,167.35 138.00,173.07 C130.36,186.22 128.11,190.56 125.31,197.49 ZM 464.22 312.01 C463.80,313.88 463.36,315.73 462.91,317.56 Z" fill="rgb(233,66,53)"/>
<path d="M 125.31 197.49 C128.11,190.56 130.36,186.22 138.00,173.07 C141.32,167.35 144.77,163.09 152.94,154.63 C155.01,152.49 157.55,150.08 160.29,147.62 C150.95,156.39 141.94,166.36 138.05,173.02 C130.32,186.24 127.57,191.65 124.19,200.37 C119.10,213.50 117.40,219.60 115.94,230.03 C114.35,241.35 115.16,266.91 117.46,278.50 C119.22,287.36 119.69,289.03 121.79,294.00 C122.04,294.59 122.29,295.18 122.53,295.76 C121.06,292.89 120.24,293.33 118.10,295.27 C116.67,296.56 113.70,298.91 111.50,300.50 C109.30,302.08 104.75,305.77 101.39,308.69 C98.03,311.61 94.96,314.00 94.57,314.00 C94.18,314.00 87.48,319.09 79.68,325.30 C51.53,347.73 48.56,350.00 47.29,350.00 C46.12,350.00 45.79,350.90 46.36,352.88 L 46.28 352.92 C33.85,326.98 29.07,311.49 23.83,282.00 C21.73,270.19 22.06,227.19 24.34,214.50 C28.30,192.46 34.04,173.58 42.23,155.63 C43.28,153.32 44.59,150.68 46.04,147.88 C46.18,148.45 46.81,149.10 47.57,149.39 C49.07,149.96 72.15,167.74 105.00,193.64 C113.53,200.36 120.86,205.77 121.29,205.66 C121.73,205.56 123.54,201.88 125.31,197.49 ZM 450.51 354.85 L 462.91 317.56 C459.61,330.84 455.50,343.23 450.51,354.85 ZM 95.61 418.64 C103.39,425.76 111.68,432.38 120.38,438.40 C121.40,439.10 122.43,439.80 123.46,440.49 C116.53,435.87 108.09,429.71 104.68,426.82 C101.60,424.19 98.55,421.46 95.56,418.64 C95.58,418.64 95.60,418.64 95.61,418.64 ZM 130.95 314.89 C128.85,310.64 126.83,306.12 124.99,301.50 L 124.93 301.35 C127.17,306.55 129.23,311.17 130.95,314.89 ZM 56.07 130.02 C59.24,124.76 62.29,120.06 64.61,116.96 C62.70,119.55 59.38,124.68 56.07,130.02 ZM 53.02 366.14 C53.87,367.60 54.74,369.05 55.63,370.50 L 55.63 370.50 C57.16,372.99 58.76,375.47 60.41,377.92 C57.68,373.93 55.20,369.98 53.02,366.14 ZM 464.12 312.47 C463.75,314.09 463.37,315.70 462.97,317.29 L 462.97 317.30 C462.95,317.38 462.93,317.47 462.91,317.56 L 464.22 312.02 C464.19,312.17 464.15,312.32 464.12,312.47 ZM 94.30 417.43 C94.31,417.44 94.32,417.46 94.33,417.47 C94.06,417.22 93.79,416.96 93.52,416.70 C93.78,416.94 94.04,417.18 94.30,417.43 ZM 69.40 110.74 C72.10,107.25 74.21,104.60 76.06,102.34 C74.21,104.59 72.11,107.24 69.40,110.74 ZM 183.58 129.86 C183.62,129.84 183.66,129.82 183.70,129.81 C183.84,129.75 183.99,129.68 184.14,129.61 C183.98,129.69 183.83,129.76 183.67,129.82 C183.64,129.83 183.61,129.85 183.58,129.86 Z" fill="rgb(249,187,6)"/>
<path d="M 183.58 129.86 C183.61,129.85 183.64,129.83 183.67,129.82 C183.82,129.76 183.98,129.69 184.13,129.62 L 184.14 129.61 C185.59,128.95 187.25,128.02 188.00,127.42 C190.16,125.71 201.21,121.28 210.43,118.44 C239.98,109.34 271.92,110.45 299.99,121.55 C310.33,125.64 316.25,129.03 326.90,136.98 C330.96,140.02 335.16,143.14 336.22,143.92 C338.02,145.24 340.29,143.20 369.57,113.93 C388.41,95.10 401.00,81.76 401.00,80.64 C401.00,75.77 372.03,55.07 349.00,43.48 C330.82,34.33 305.28,26.84 279.31,23.05 C268.36,21.45 231.75,21.73 220.24,23.50 C207.05,25.52 193.93,28.03 191.50,28.99 C190.40,29.42 187.48,30.31 185.00,30.97 C177.07,33.08 163.77,38.12 154.00,42.71 C148.77,45.17 142.70,47.89 140.50,48.78 C140.48,48.79 140.45,48.80 140.43,48.81 C141.90,47.92 143.09,46.75 143.31,45.92 C143.59,44.83 145.52,43.31 147.66,42.47 C149.77,41.64 152.89,40.27 154.58,39.41 C156.28,38.56 159.20,37.48 161.08,37.01 C168.23,35.23 178.23,31.13 180.39,29.11 C182.02,27.57 183.96,26.99 187.56,26.96 C190.28,26.93 194.30,26.24 196.50,25.41 C198.70,24.59 202.98,23.69 206.00,23.40 C209.02,23.12 213.07,22.47 215.00,21.95 C216.93,21.43 219.87,21.01 221.55,21.01 C223.23,21.00 225.12,20.48 225.75,19.85 C226.61,18.99 227.52,19.11 229.41,20.35 C232.57,22.42 233.72,22.42 235.79,20.36 C237.24,18.90 239.38,18.79 254.47,19.43 C284.52,20.70 306.00,23.82 306.00,26.92 C306.00,27.29 307.49,27.42 309.32,27.21 C313.20,26.76 321.00,28.65 321.00,30.04 C321.00,30.57 322.01,31.00 323.25,31.00 C326.94,30.99 334.87,33.87 345.52,39.09 C351.03,41.79 356.04,44.00 356.65,44.00 C357.26,44.00 358.35,44.72 359.09,45.61 C359.82,46.49 362.69,48.22 365.46,49.45 C368.23,50.67 373.94,54.45 378.15,57.84 C382.36,61.23 386.53,64.00 387.42,64.00 C388.32,64.00 389.47,65.11 389.99,66.47 C390.52,67.87 392.05,69.23 393.52,69.59 C396.01,70.22 398.64,72.07 403.63,76.70 C407.61,80.41 406.72,82.64 398.00,90.74 C393.60,94.83 390.00,98.71 390.00,99.37 C390.00,100.02 389.00,101.22 387.77,102.03 C385.92,103.24 378.18,110.90 356.50,132.96 C355.40,134.08 350.73,138.45 346.12,142.68 C338.22,149.93 337.67,150.26 336.41,148.43 C335.68,147.37 334.73,146.19 334.29,145.81 C333.86,145.43 331.48,143.35 329.00,141.19 C326.52,139.02 322.02,135.93 319.00,134.32 C315.98,132.70 311.70,130.26 309.50,128.88 C305.15,126.16 298.66,123.00 297.43,123.00 C297.00,123.00 295.82,122.24 294.80,121.32 C293.77,120.39 290.59,119.26 287.72,118.80 C254.14,113.45 240.60,112.66 232.90,115.57 C230.48,116.49 226.81,117.17 224.75,117.09 C222.69,117.02 219.00,117.86 216.55,118.98 C214.11,120.09 211.36,121.00 210.45,121.00 C209.54,121.00 206.70,122.05 204.15,123.33 C201.59,124.61 198.29,125.96 196.82,126.33 C195.34,126.70 191.43,128.80 188.12,131.00 C184.81,133.20 181.14,135.00 179.97,135.00 C178.71,135.00 174.94,137.78 170.67,141.87 C166.73,145.65 160.80,151.13 157.50,154.05 C150.43,160.30 150.04,160.81 150.02,163.75 C150.01,165.11 149.39,166.00 148.45,166.00 C146.46,166.00 141.71,170.73 142.47,171.96 C142.79,172.48 141.73,173.88 140.12,175.07 C138.50,176.27 136.39,179.32 135.43,181.87 C134.46,184.42 132.20,188.31 130.40,190.52 C127.23,194.43 124.33,201.43 124.21,205.50 C124.10,209.19 121.26,219.98 120.01,221.49 C119.32,222.32 118.79,224.88 118.82,227.19 C118.85,229.50 118.57,231.86 118.19,232.44 C117.81,233.02 117.47,235.52 117.43,238.00 C117.39,240.48 117.26,244.98 117.15,248.00 C116.77,258.09 120.33,284.60 122.37,286.87 C123.24,287.83 123.84,290.48 123.84,293.30 C123.83,296.24 124.53,299.14 125.62,300.80 C126.61,302.28 130.02,308.62 133.22,314.88 C136.41,321.13 140.26,327.78 141.76,329.64 C147.91,337.23 161.37,352.00 162.14,352.00 C162.59,352.00 165.08,354.03 167.68,356.51 C170.27,359.00 174.00,361.46 175.98,361.99 C177.95,362.53 181.08,364.51 182.92,366.41 C184.76,368.31 187.55,370.40 189.13,371.05 C190.71,371.71 192.00,372.58 192.00,372.99 C192.00,373.40 193.58,373.99 195.51,374.31 C197.44,374.62 200.25,375.74 201.76,376.79 C203.27,377.85 206.44,379.01 208.82,379.38 C211.20,379.75 214.12,380.67 215.32,381.43 C216.52,382.19 219.98,383.29 223.00,383.87 C231.35,385.46 251.39,387.27 255.95,386.83 C258.18,386.62 260.00,386.80 260.00,387.22 C260.00,387.51 260.14,387.71 260.37,387.84 C250.10,388.11 236.26,387.63 229.48,386.53 C213.96,384.01 195.91,377.28 182.44,368.98 C178.62,366.62 173.48,363.55 171.00,362.14 C168.27,360.59 162.79,355.71 157.20,350.17 L 157.20 350.17 C152.14,345.07 147.31,339.84 143.77,335.50 C142.88,334.38 142.13,333.36 141.56,332.49 C140.03,330.17 138.32,327.70 137.10,326.06 C136.84,325.66 136.59,325.26 136.35,324.86 C134.53,321.81 132.71,318.45 130.95,314.89 C129.23,311.17 127.17,306.55 124.93,301.35 C123.91,298.80 123.16,296.98 122.53,295.76 C122.29,295.18 122.04,294.59 121.79,294.00 C119.69,289.03 119.22,287.36 117.46,278.50 C115.16,266.91 114.35,241.35 115.94,230.03 C117.40,219.60 119.10,213.50 124.19,200.37 C127.57,191.65 130.32,186.24 138.05,173.02 C141.94,166.36 150.95,156.39 160.29,147.62 C168.92,139.89 179.54,131.66 183.58,129.86 ZM 48.73 358.38 C49.13,359.16 49.57,360.01 50.07,360.91 C51.02,362.67 52.01,364.41 53.02,366.14 C55.20,369.98 57.68,373.93 60.41,377.92 L 60.41 377.92 C65.90,386.07 72.02,393.94 78.67,401.44 C83.37,406.73 88.33,411.83 93.52,416.70 C93.79,416.96 94.06,417.22 94.33,417.47 C94.78,418.18 95.25,418.62 95.56,418.64 C98.55,421.46 101.60,424.19 104.68,426.82 C108.09,429.71 116.53,435.87 123.46,440.49 C159.13,464.31 201.32,477.89 243.73,479.57 C233.97,479.75 226.10,479.76 225.78,479.46 C225.63,479.31 220.64,478.70 214.71,478.11 C208.77,477.51 203.05,476.56 201.99,475.99 C200.09,474.98 186.25,471.75 176.50,470.06 C170.02,468.93 168.00,468.08 168.00,466.49 C168.00,465.75 164.90,464.27 160.75,463.02 C156.76,461.83 150.90,459.09 147.72,456.93 C144.54,454.77 141.34,453.00 140.60,453.00 C139.87,453.00 138.13,452.10 136.73,451.00 C135.33,449.90 133.53,449.00 132.73,449.00 C131.93,449.00 130.20,448.17 128.88,447.15 C127.57,446.14 125.26,445.00 123.75,444.63 C122.24,444.26 121.00,443.54 121.00,443.02 C121.00,441.44 116.74,438.00 114.79,438.00 C113.78,438.00 112.49,436.99 111.91,435.75 C111.34,434.51 109.03,432.38 106.79,431.00 C104.55,429.62 102.22,428.03 101.61,427.46 C101.00,426.89 98.33,424.78 95.68,422.77 C93.04,420.76 89.60,417.41 88.06,415.31 C83.92,409.70 81.11,406.99 78.36,405.95 C76.93,405.40 75.25,403.46 74.35,401.30 C73.50,399.26 71.68,396.44 70.30,395.04 C67.30,391.99 57.69,376.98 57.68,375.33 C57.67,374.69 56.73,373.63 55.58,372.99 C54.44,372.34 52.17,369.12 50.55,365.83 C48.93,362.54 46.34,358.78 44.80,357.49 C43.26,356.19 42.00,354.25 42.00,353.18 C42.00,352.11 40.24,347.69 38.09,343.37 C35.95,339.04 33.40,332.58 32.44,329.00 C31.48,325.42 30.25,321.93 29.71,321.23 C29.17,320.53 28.36,318.28 27.92,316.23 C27.48,314.18 26.16,309.35 24.98,305.50 C20.76,291.77 18.61,272.69 18.55,248.50 C18.50,229.65 19.45,218.42 21.58,212.74 C22.36,210.67 22.91,208.65 22.81,208.24 C22.63,207.50 23.60,201.23 24.78,195.50 C25.12,193.85 25.31,190.36 25.21,187.75 C25.04,183.53 25.25,183.00 27.12,183.00 C28.84,183.00 29.11,182.57 28.61,180.57 C28.22,179.03 28.56,177.58 29.53,176.61 C30.37,175.77 31.73,173.15 32.55,170.79 C35.18,163.21 39.28,154.00 40.02,154.00 C40.41,154.00 40.53,152.20 40.28,150.00 C39.79,145.82 39.86,145.74 45.21,144.57 C47.10,144.16 47.75,143.52 47.35,142.48 C47.04,141.66 47.50,139.88 48.39,138.53 C49.28,137.18 50.00,135.41 50.00,134.61 C50.00,133.81 51.03,131.88 52.29,130.33 C53.56,128.77 55.45,125.47 56.49,123.00 C57.54,120.53 60.36,116.36 62.75,113.74 C65.14,111.12 66.84,108.55 66.52,108.04 C66.21,107.52 67.35,106.07 69.07,104.80 C70.79,103.54 72.85,101.24 73.65,99.71 C74.44,98.17 76.20,96.49 77.55,95.98 C78.90,95.47 80.00,94.36 80.00,93.52 C80.00,92.69 80.47,92.00 81.04,92.00 C82.73,92.00 92.00,82.86 92.00,81.20 C92.00,80.36 92.28,79.95 92.63,80.30 C92.98,80.65 94.56,79.15 96.14,76.97 C97.72,74.78 99.73,73.00 100.61,73.00 C101.48,73.00 103.39,71.76 104.85,70.24 C106.31,68.73 109.19,66.37 111.25,64.99 C113.31,63.62 115.26,61.71 115.57,60.75 C115.88,59.79 116.60,59.00 117.17,59.00 C117.73,59.00 119.84,58.28 121.85,57.40 C123.86,56.52 126.62,55.35 128.00,54.80 C129.38,54.25 131.62,53.19 133.00,52.45 C134.19,51.80 136.43,50.70 138.32,49.85 C135.82,51.21 132.36,53.42 129.50,55.52 C125.65,58.35 119.35,62.87 115.50,65.56 C106.91,71.57 96.00,81.13 85.79,91.60 C81.94,95.55 79.41,98.27 76.06,102.34 L 76.05 102.35 C74.20,104.60 72.10,107.26 69.40,110.74 C68.09,112.43 66.64,114.31 65.00,116.44 C64.88,116.60 64.75,116.78 64.61,116.96 C62.29,120.06 59.24,124.76 56.07,130.02 C51.04,138.14 46.02,146.74 46.01,147.64 C46.01,147.72 46.02,147.80 46.04,147.88 C44.59,150.68 43.28,153.32 42.23,155.63 C34.04,173.58 28.30,192.46 24.34,214.50 C22.06,227.19 21.73,270.19 23.83,282.00 C29.07,311.49 33.85,326.98 46.28,352.92 L 45.89 353.13 ZM 414.90 410.58 C419.06,405.97 422.98,401.22 426.66,396.30 C424.11,400.33 422.24,404.09 422.56,405.39 C423.03,407.24 422.66,408.11 421.07,408.96 C419.91,409.58 418.57,409.85 418.09,409.56 C417.07,408.93 414.75,411.42 415.59,412.26 C416.70,413.37 413.87,417.16 412.36,416.58 C410.90,416.02 401.26,424.89 398.08,429.71 C397.29,430.90 395.61,432.13 394.34,432.45 C392.99,432.79 391.78,434.05 391.42,435.47 C390.99,437.17 389.69,438.26 387.15,439.06 C385.14,439.69 379.18,443.08 373.89,446.60 C368.61,450.12 363.82,453.00 363.26,453.00 C362.69,453.00 359.94,454.57 357.15,456.49 C351.56,460.34 345.38,462.94 340.00,463.72 C338.08,464.00 335.60,465.02 334.50,465.99 C332.36,467.88 328.77,469.13 320.00,471.04 C316.98,471.70 312.92,473.06 311.00,474.06 C308.66,475.28 304.36,476.06 298.00,476.42 C292.77,476.71 285.35,477.45 281.50,478.06 C280.70,478.18 279.13,478.31 277.01,478.44 C281.91,477.94 286.50,477.37 288.50,477.00 C292.32,476.27 296.02,475.53 299.59,474.75 C299.96,475.09 300.29,475.01 300.66,474.52 C325.04,469.15 343.60,462.48 358.00,453.95 C359.93,452.81 361.99,451.63 363.80,450.64 L 363.80 450.63 C365.10,449.94 366.44,449.23 367.65,448.60 C367.96,448.44 368.24,448.31 368.45,448.22 C376.45,444.72 392.84,432.45 404.23,421.43 C404.41,421.25 404.59,421.07 404.77,420.90 L 405.00 420.70 C406.92,419.02 411.38,414.47 414.90,410.58 ZM 262.17 387.78 C262.66,387.58 263.09,387.24 263.24,386.79 C263.50,385.99 267.13,385.45 274.07,385.17 C283.72,384.79 284.73,384.55 287.64,382.01 C289.91,380.02 292.35,379.06 296.47,378.55 C299.60,378.16 302.43,378.09 302.74,378.41 C303.06,378.73 303.95,378.09 304.72,376.99 C305.49,375.90 306.56,375.00 307.11,375.00 C307.66,375.00 309.76,373.88 311.79,372.50 C313.81,371.12 316.24,370.00 317.20,370.00 C318.15,370.00 320.26,368.70 321.88,367.12 C323.98,365.07 325.52,364.38 327.25,364.71 C329.09,365.06 331.13,363.96 335.59,360.23 C340.04,356.51 344.10,352.62 347.78,348.55 C343.47,353.35 338.69,357.85 333.46,362.02 C321.27,371.75 297.74,382.21 281.62,385.09 C278.25,385.69 273.48,386.56 271.00,387.03 C269.06,387.40 265.92,387.64 262.17,387.78 ZM 432.11 388.65 C437.70,380.40 442.67,371.69 447.06,362.48 C447.61,361.34 448.14,360.20 448.67,359.04 L 448.67 359.04 C449.30,357.66 449.92,356.27 450.52,354.86 C455.78,342.66 460.04,329.61 463.41,315.53 C459.51,331.91 454.46,346.90 448.55,359.55 C446.05,364.91 444.00,370.35 444.00,371.65 C444.00,373.05 443.41,374.00 442.53,374.00 C440.46,374.00 437.98,379.22 438.71,382.02 C439.20,383.86 438.99,384.21 437.72,383.72 C436.84,383.39 434.61,385.55 432.11,388.65 ZM 439.00 388.44 C439.00,389.23 438.58,390.14 438.07,390.46 C436.88,391.19 435.68,389.32 436.50,388.00 C437.42,386.51 439.00,386.79 439.00,388.44 Z" fill="rgb(249,249,239)"/>
<path d="M 0.00 250.00 L 0.00 0.00 L 250.00 0.00 L 500.00 0.00 L 500.00 250.00 L 500.00 500.00 L 250.00 500.00 L 0.00 500.00 L 0.00 250.00 ZM 281.50 478.06 C285.35,477.45 292.77,476.71 298.00,476.42 C304.36,476.06 308.66,475.28 311.00,474.06 C312.92,473.06 316.98,471.70 320.00,471.04 C328.77,469.13 332.36,467.88 334.50,465.99 C335.60,465.02 338.08,464.00 340.00,463.72 C345.38,462.94 351.56,460.34 357.15,456.49 C359.94,454.57 362.69,453.00 363.26,453.00 C363.82,453.00 368.61,450.12 373.89,446.60 C379.18,443.08 385.14,439.69 387.15,439.06 C389.69,438.26 390.99,437.17 391.42,435.47 C391.78,434.05 392.99,432.79 394.34,432.45 C395.61,432.13 397.29,430.90 398.08,429.71 C401.26,424.89 410.90,416.02 412.36,416.58 C413.87,417.16 416.70,413.37 415.59,412.26 C414.75,411.42 417.07,408.93 418.09,409.56 C418.57,409.85 419.91,409.58 421.07,408.96 C422.66,408.11 423.03,407.24 422.56,405.39 C421.73,402.07 435.23,382.77 437.72,383.72 C438.99,384.21 439.20,383.86 438.71,382.02 C437.98,379.22 440.46,374.00 442.53,374.00 C443.41,374.00 444.00,373.05 444.00,371.65 C444.00,370.35 446.05,364.91 448.55,359.55 C456.91,341.66 463.55,319.07 467.66,294.50 C470.01,280.46 470.15,231.67 467.88,218.00 L 466.46 209.50 L 358.23 209.25 L 250.00 208.99 L 250.00 253.00 L 250.00 297.00 L 310.25 297.02 C343.39,297.02 370.95,297.36 371.50,297.77 C373.22,299.03 373.06,300.71 370.37,309.22 C364.08,329.19 352.66,345.94 335.59,360.23 C331.13,363.96 329.09,365.06 327.25,364.71 C325.52,364.38 323.98,365.07 321.88,367.12 C320.26,368.70 318.15,370.00 317.20,370.00 C316.24,370.00 313.81,371.12 311.79,372.50 C309.76,373.88 307.66,375.00 307.11,375.00 C306.56,375.00 305.49,375.90 304.72,376.99 C303.95,378.09 303.06,378.73 302.74,378.41 C302.43,378.09 299.60,378.16 296.47,378.55 C292.35,379.06 289.91,380.02 287.64,382.01 C284.73,384.55 283.72,384.79 274.07,385.17 C267.13,385.45 263.50,385.99 263.24,386.79 C262.80,388.11 260.00,388.48 260.00,387.22 C260.00,386.80 258.18,386.62 255.95,386.83 C251.39,387.27 231.35,385.46 223.00,383.87 C219.98,383.29 216.52,382.19 215.32,381.43 C214.12,380.67 211.20,379.75 208.82,379.38 C206.44,379.01 203.27,377.85 201.76,376.79 C200.25,375.74 197.44,374.62 195.51,374.31 C193.58,373.99 192.00,373.40 192.00,372.99 C192.00,372.58 190.71,371.71 189.13,371.05 C187.55,370.40 184.76,368.31 182.92,366.41 C181.08,364.51 177.95,362.53 175.98,361.99 C174.00,361.46 170.27,359.00 167.68,356.51 C165.08,354.03 162.59,352.00 162.14,352.00 C161.37,352.00 147.91,337.23 141.76,329.64 C140.26,327.78 136.41,321.13 133.22,314.88 C130.02,308.62 126.61,302.28 125.62,300.80 C124.53,299.14 123.83,296.24 123.84,293.30 C123.84,290.48 123.24,287.83 122.37,286.87 C120.33,284.60 116.77,258.09 117.15,248.00 C117.26,244.98 117.39,240.48 117.43,238.00 C117.47,235.52 117.81,233.02 118.19,232.44 C118.57,231.86 118.85,229.50 118.82,227.19 C118.79,224.88 119.32,222.32 120.01,221.49 C121.26,219.98 124.10,209.19 124.21,205.50 C124.33,201.43 127.23,194.43 130.40,190.52 C132.20,188.31 134.46,184.42 135.43,181.87 C136.39,179.32 138.50,176.27 140.12,175.07 C141.73,173.88 142.79,172.48 142.47,171.96 C141.71,170.73 146.46,166.00 148.45,166.00 C149.39,166.00 150.01,165.11 150.02,163.75 C150.04,160.81 150.43,160.30 157.50,154.05 C160.80,151.13 166.73,145.65 170.67,141.87 C174.94,137.78 178.71,135.00 179.97,135.00 C181.14,135.00 184.81,133.20 188.12,131.00 C191.43,128.80 195.34,126.70 196.82,126.33 C198.29,125.96 201.59,124.61 204.15,123.33 C206.70,122.05 209.54,121.00 210.45,121.00 C211.36,121.00 214.11,120.09 216.55,118.98 C219.00,117.86 222.69,117.02 224.75,117.09 C226.81,117.17 230.48,116.49 232.90,115.57 C240.60,112.66 254.14,113.45 287.72,118.80 C290.59,119.26 293.77,120.39 294.80,121.32 C295.82,122.24 297.00,123.00 297.43,123.00 C298.66,123.00 305.15,126.16 309.50,128.88 C311.70,130.26 315.98,132.70 319.00,134.32 C322.02,135.93 326.52,139.02 329.00,141.19 C331.48,143.35 333.86,145.43 334.29,145.81 C334.73,146.19 335.68,147.37 336.41,148.43 C337.67,150.26 338.22,149.93 346.12,142.68 C350.73,138.45 355.40,134.08 356.50,132.96 C378.18,110.90 385.92,103.24 387.77,102.03 C389.00,101.22 390.00,100.02 390.00,99.37 C390.00,98.71 393.60,94.83 398.00,90.74 C406.72,82.64 407.61,80.41 403.63,76.70 C398.64,72.07 396.01,70.22 393.52,69.59 C392.05,69.23 390.52,67.87 389.99,66.47 C389.47,65.11 388.32,64.00 387.42,64.00 C386.53,64.00 382.36,61.23 378.15,57.84 C373.94,54.45 368.23,50.67 365.46,49.45 C362.69,48.22 359.82,46.49 359.09,45.61 C358.35,44.72 357.26,44.00 356.65,44.00 C356.04,44.00 351.03,41.79 345.52,39.09 C334.87,33.87 326.94,30.99 323.25,31.00 C322.01,31.00 321.00,30.57 321.00,30.04 C321.00,28.65 313.20,26.76 309.32,27.21 C307.49,27.42 306.00,27.29 306.00,26.92 C306.00,23.82 284.52,20.70 254.47,19.43 C239.38,18.79 237.24,18.90 235.79,20.36 C233.72,22.42 232.57,22.42 229.41,20.35 C227.52,19.11 226.61,18.99 225.75,19.85 C225.12,20.48 223.23,21.00 221.55,21.01 C219.87,21.01 216.93,21.43 215.00,21.95 C213.07,22.47 209.02,23.12 206.00,23.40 C202.98,23.69 198.70,24.59 196.50,25.41 C194.30,26.24 190.28,26.93 187.56,26.96 C183.96,26.99 182.02,27.57 180.39,29.11 C178.23,31.13 168.23,35.23 161.08,37.01 C159.20,37.48 156.28,38.56 154.58,39.41 C152.89,40.27 149.77,41.64 147.66,42.47 C145.52,43.31 143.59,44.83 143.31,45.92 C143.03,46.99 141.16,48.59 139.15,49.47 C137.14,50.36 134.38,51.70 133.00,52.45 C131.62,53.19 129.38,54.25 128.00,54.80 C126.62,55.35 123.86,56.52 121.85,57.40 C119.84,58.28 117.73,59.00 117.17,59.00 C116.60,59.00 115.88,59.79 115.57,60.75 C115.26,61.71 113.31,63.62 111.25,64.99 C109.19,66.37 106.31,68.73 104.85,70.24 C103.39,71.76 101.48,73.00 100.61,73.00 C99.73,73.00 97.72,74.78 96.14,76.97 C94.56,79.15 92.98,80.65 92.63,80.30 C92.28,79.95 92.00,80.36 92.00,81.20 C92.00,82.86 82.73,92.00 81.04,92.00 C80.47,92.00 80.00,92.69 80.00,93.52 C80.00,94.36 78.90,95.47 77.55,95.98 C76.20,96.49 74.44,98.17 73.65,99.71 C72.85,101.24 70.79,103.54 69.07,104.80 C67.35,106.07 66.21,107.52 66.52,108.04 C66.84,108.55 65.14,111.12 62.75,113.74 C60.36,116.36 57.54,120.53 56.49,123.00 C55.45,125.47 53.56,128.77 52.29,130.33 C51.03,131.88 50.00,133.81 50.00,134.61 C50.00,135.41 49.28,137.18 48.39,138.53 C47.50,139.88 47.04,141.66 47.35,142.48 C47.75,143.52 47.10,144.16 45.21,144.57 C39.86,145.74 39.79,145.82 40.28,150.00 C40.53,152.20 40.41,154.00 40.02,154.00 C39.28,154.00 35.18,163.21 32.55,170.79 C31.73,173.15 30.37,175.77 29.53,176.61 C28.56,177.58 28.22,179.03 28.61,180.57 C29.11,182.57 28.84,183.00 27.12,183.00 C25.25,183.00 25.04,183.53 25.21,187.75 C25.31,190.36 25.12,193.85 24.78,195.50 C23.60,201.23 22.63,207.50 22.81,208.24 C22.91,208.65 22.36,210.67 21.58,212.74 C19.45,218.42 18.50,229.65 18.55,248.50 C18.61,272.69 20.76,291.77 24.98,305.50 C26.16,309.35 27.48,314.18 27.92,316.23 C28.36,318.28 29.17,320.53 29.71,321.23 C30.25,321.93 31.48,325.42 32.44,329.00 C33.40,332.58 35.95,339.04 38.09,343.37 C40.24,347.69 42.00,352.11 42.00,353.18 C42.00,354.25 43.26,356.19 44.80,357.49 C46.34,358.78 48.93,362.54 50.55,365.83 C52.17,369.12 54.44,372.34 55.58,372.99 C56.73,373.63 57.67,374.69 57.68,375.33 C57.69,376.98 67.30,391.99 70.30,395.04 C71.68,396.44 73.50,399.26 74.35,401.30 C75.25,403.46 76.93,405.40 78.36,405.95 C81.11,406.99 83.92,409.70 88.06,415.31 C89.60,417.41 93.04,420.76 95.68,422.77 C98.33,424.78 101.00,426.89 101.61,427.46 C102.22,428.03 104.55,429.62 106.79,431.00 C109.03,432.38 111.34,434.51 111.91,435.75 C112.49,436.99 113.78,438.00 114.79,438.00 C116.74,438.00 121.00,441.44 121.00,443.02 C121.00,443.54 122.24,444.26 123.75,444.63 C125.26,445.00 127.57,446.14 128.88,447.15 C130.20,448.17 131.93,449.00 132.73,449.00 C133.53,449.00 135.33,449.90 136.73,451.00 C138.13,452.10 139.87,453.00 140.60,453.00 C141.34,453.00 144.54,454.77 147.72,456.93 C150.90,459.09 156.76,461.83 160.75,463.02 C164.90,464.27 168.00,465.75 168.00,466.49 C168.00,468.08 170.02,468.93 176.50,470.06 C186.25,471.75 200.09,474.98 201.99,475.99 C203.05,476.56 208.77,477.51 214.71,478.11 C220.64,478.70 225.63,479.31 225.78,479.46 C226.58,480.23 275.51,479.00 281.50,478.06 ZM 439.00 388.44 C439.00,386.79 437.42,386.51 436.50,388.00 C435.68,389.32 436.88,391.19 438.07,390.46 C438.58,390.14 439.00,389.23 439.00,388.44 Z" fill="rgb(254,254,254)"/>
</g>
</svg>